<svg xmlns="http://www.w3.org/2000/svg" width="391" height="444" fill="none" viewBox="0 0 391 444"><path fill="#9BB48F" d="M296.699 92.5444C227.676 60.8672 165.833 134.002 138.263 176.249C182.6 230.892 273.343 118.486 301.922 102.326L352.09 81.4819L336.659 81.5531C315.761 90.6655 315.445 91.016 296.699 92.5444Z" opacity=".5"/><path fill="#3A6B23" fill-opacity=".51" d="M151.016 260.628C168 335 124.5 332.5 70.92 420.917C15.2864 377.829 125.61 284.565 141.119 255.627L160.821 205L161.099 220.428C152.462 241.527 152.119 241.851 151.016 260.628Z" opacity=".5"/><path fill="#9BB48F" d="M264.999 196.706C251.216 280.074 220.609 281.952 185.74 298.251C190.157 226.244 225.275 200.834 258.159 191.7L279.248 156L277.555 167.664C268.445 182.489 268.146 182.69 264.999 196.706Z" opacity=".5"/><path stroke="#1C1C1C" stroke-opacity=".5" d="M134.264 162.249C161.833 120.002 223.676 46.8672 292.699 78.5444C311.446 77.016 311.761 76.6655 332.66 67.5531L348.09 67.4819L297.923 88.3255C269.343 104.486 178.6 216.892 134.264 162.249ZM134.264 162.249C176.107 138.777 257.42 73.9474 273.695 85.5535"/><path stroke="#1C1C1C" stroke-opacity=".5" d="M66.9203 406.917C120.5 318.5 164 321 147.016 246.628C148.119 227.851 148.463 227.527 157.1 206.428L156.821 191L137.119 241.627C121.61 270.565 11.2868 363.829 66.9203 406.917ZM66.9203 406.917C66.9203 345 140.972 291.508 129 275.5"/><path stroke="#1C1C1C" stroke-opacity=".5" d="M181.741 284.251C216.609 267.952 247.216 266.074 260.999 182.706C264.147 168.69 264.445 168.489 273.555 153.664L275.248 142L254.16 177.7C221.276 186.834 186.157 212.244 181.741 284.251ZM181.741 284.251C203.932 255.131 231.279 256.665 247.343 198.148"/></svg>